<mxfile host="app.diagrams.net" modified="2023-05-10T14:18:20.035Z" agent="Mozilla/5.0 (Windows NT 10.0; Win64; x64) AppleWebKit/537.36 (KHTML, like Gecko) Chrome/112.0.0.0 Safari/537.36" etag="RgnbddrUVKRVjRDu3ju4" version="21.2.1" type="device">
  <diagram id="R2lEEEUBdFMjLlhIrx00" name="Page-1">
    <mxGraphModel dx="1050" dy="573" grid="1" gridSize="10" guides="1" tooltips="1" connect="1" arrows="1" fold="1" page="1" pageScale="1" pageWidth="850" pageHeight="1100" math="0" shadow="0" extFonts="Permanent Marker^https://fonts.googleapis.com/css?family=Permanent+Marker">
      <root>
        <mxCell id="0" />
        <mxCell id="1" parent="0" />
        <mxCell id="Evl8wHQFUjOQ4-fQIDi5-3" value="Fact_Sales" style="swimlane;fontStyle=1;align=center;verticalAlign=middle;childLayout=stackLayout;horizontal=1;startSize=29;horizontalStack=0;resizeParent=1;resizeParentMax=0;resizeLast=0;collapsible=0;marginBottom=0;html=1;whiteSpace=wrap;" parent="1" vertex="1">
          <mxGeometry x="330" y="180" width="160" height="190" as="geometry" />
        </mxCell>
        <mxCell id="Evl8wHQFUjOQ4-fQIDi5-5" value="Row ID (PK):&lt;span style=&quot;&quot;&gt; &lt;/span&gt;int&lt;br&gt;Customer ID (FK): String&lt;br&gt;Product ID (FK): String&lt;br&gt;Shipping ID (FK): int&lt;br&gt;Order ID (FK): String&lt;br&gt;Sales: double&lt;br&gt;Quantity: int&lt;br&gt;Shipping cost: float&lt;br&gt;Discount: float&lt;br&gt;Profit: float&lt;br&gt;" style="text;html=1;strokeColor=none;fillColor=none;align=left;verticalAlign=top;spacingLeft=4;spacingRight=4;overflow=hidden;rotatable=0;points=[[0,0.5],[1,0.5]];portConstraint=eastwest;whiteSpace=wrap;" parent="Evl8wHQFUjOQ4-fQIDi5-3" vertex="1">
          <mxGeometry y="29" width="160" height="161" as="geometry" />
        </mxCell>
        <mxCell id="Evl8wHQFUjOQ4-fQIDi5-7" value="Dim_Customer" style="swimlane;fontStyle=1;align=center;verticalAlign=middle;childLayout=stackLayout;horizontal=1;startSize=29;horizontalStack=0;resizeParent=1;resizeParentMax=0;resizeLast=0;collapsible=0;marginBottom=0;html=1;whiteSpace=wrap;" parent="1" vertex="1">
          <mxGeometry x="60" y="100" width="150" height="170" as="geometry" />
        </mxCell>
        <mxCell id="Evl8wHQFUjOQ4-fQIDi5-8" value="Customer ID (PK): String&lt;br&gt;Customer Name: string&lt;br&gt;Segment: string&lt;br&gt;City: string&lt;br&gt;state: string&lt;br&gt;Country: string&lt;br&gt;Postal Code: string&lt;br&gt;Region: string&lt;br style=&quot;border-color: var(--border-color);&quot;&gt;Market: string" style="text;html=1;strokeColor=none;fillColor=none;align=left;verticalAlign=top;spacingLeft=4;spacingRight=4;overflow=hidden;rotatable=0;points=[[0,0.5],[1,0.5]];portConstraint=eastwest;whiteSpace=wrap;" parent="Evl8wHQFUjOQ4-fQIDi5-7" vertex="1">
          <mxGeometry y="29" width="150" height="141" as="geometry" />
        </mxCell>
        <mxCell id="Evl8wHQFUjOQ4-fQIDi5-10" value="Dim_Product" style="swimlane;fontStyle=1;align=center;verticalAlign=middle;childLayout=stackLayout;horizontal=1;startSize=29;horizontalStack=0;resizeParent=1;resizeParentMax=0;resizeLast=0;collapsible=0;marginBottom=0;html=1;whiteSpace=wrap;" parent="1" vertex="1">
          <mxGeometry x="65" y="330" width="140" height="100" as="geometry" />
        </mxCell>
        <mxCell id="Evl8wHQFUjOQ4-fQIDi5-11" value="Product ID (PK): string&lt;br&gt;Category: string&lt;br&gt;Sub-Category: string&lt;br&gt;Product Name: string" style="text;html=1;strokeColor=none;fillColor=none;align=left;verticalAlign=top;spacingLeft=4;spacingRight=4;overflow=hidden;rotatable=0;points=[[0,0.5],[1,0.5]];portConstraint=eastwest;whiteSpace=wrap;" parent="Evl8wHQFUjOQ4-fQIDi5-10" vertex="1">
          <mxGeometry y="29" width="140" height="71" as="geometry" />
        </mxCell>
        <mxCell id="Evl8wHQFUjOQ4-fQIDi5-12" value="Dim_Shipping" style="swimlane;fontStyle=1;align=center;verticalAlign=middle;childLayout=stackLayout;horizontal=1;startSize=29;horizontalStack=0;resizeParent=1;resizeParentMax=0;resizeLast=0;collapsible=0;marginBottom=0;html=1;whiteSpace=wrap;" parent="1" vertex="1">
          <mxGeometry x="570" y="350" width="140" height="100" as="geometry" />
        </mxCell>
        <mxCell id="Evl8wHQFUjOQ4-fQIDi5-13" value="Shipping ID (PK): int&lt;br&gt;Ship Mode: string&lt;br&gt;Ship Date: date&lt;br&gt;" style="text;html=1;strokeColor=none;fillColor=none;align=left;verticalAlign=top;spacingLeft=4;spacingRight=4;overflow=hidden;rotatable=0;points=[[0,0.5],[1,0.5]];portConstraint=eastwest;whiteSpace=wrap;" parent="Evl8wHQFUjOQ4-fQIDi5-12" vertex="1">
          <mxGeometry y="29" width="140" height="71" as="geometry" />
        </mxCell>
        <mxCell id="Evl8wHQFUjOQ4-fQIDi5-14" value="Dim Order" style="swimlane;fontStyle=1;align=center;verticalAlign=middle;childLayout=stackLayout;horizontal=1;startSize=29;horizontalStack=0;resizeParent=1;resizeParentMax=0;resizeLast=0;collapsible=0;marginBottom=0;html=1;whiteSpace=wrap;" parent="1" vertex="1">
          <mxGeometry x="560" y="100" width="140" height="100" as="geometry" />
        </mxCell>
        <mxCell id="Evl8wHQFUjOQ4-fQIDi5-15" value="Order ID (PK): String&lt;br&gt;Row ID (FK) int&lt;br&gt;Order Date: date&lt;br&gt;Order Priority: String" style="text;html=1;strokeColor=none;fillColor=none;align=left;verticalAlign=top;spacingLeft=4;spacingRight=4;overflow=hidden;rotatable=0;points=[[0,0.5],[1,0.5]];portConstraint=eastwest;whiteSpace=wrap;" parent="Evl8wHQFUjOQ4-fQIDi5-14" vertex="1">
          <mxGeometry y="29" width="140" height="71" as="geometry" />
        </mxCell>
        <mxCell id="Evl8wHQFUjOQ4-fQIDi5-17" value="" style="endArrow=classic;html=1;rounded=0;exitX=1;exitY=0.306;exitDx=0;exitDy=0;entryX=0.006;entryY=0.377;entryDx=0;entryDy=0;entryPerimeter=0;edgeStyle=orthogonalEdgeStyle;exitPerimeter=0;" parent="1" source="Evl8wHQFUjOQ4-fQIDi5-5" target="Evl8wHQFUjOQ4-fQIDi5-15" edge="1">
          <mxGeometry width="50" height="50" relative="1" as="geometry">
            <mxPoint x="640" y="290" as="sourcePoint" />
            <mxPoint x="690" y="240" as="targetPoint" />
          </mxGeometry>
        </mxCell>
        <mxCell id="Evl8wHQFUjOQ4-fQIDi5-18" value="" style="endArrow=classic;html=1;rounded=0;exitX=1;exitY=0.787;exitDx=0;exitDy=0;exitPerimeter=0;entryX=0;entryY=0.5;entryDx=0;entryDy=0;edgeStyle=orthogonalEdgeStyle;" parent="1" source="Evl8wHQFUjOQ4-fQIDi5-5" target="Evl8wHQFUjOQ4-fQIDi5-13" edge="1">
          <mxGeometry width="50" height="50" relative="1" as="geometry">
            <mxPoint x="520" y="290" as="sourcePoint" />
            <mxPoint x="570" y="240" as="targetPoint" />
          </mxGeometry>
        </mxCell>
        <mxCell id="Evl8wHQFUjOQ4-fQIDi5-20" value="" style="endArrow=classic;html=1;rounded=0;entryX=1.011;entryY=0.377;entryDx=0;entryDy=0;entryPerimeter=0;edgeStyle=orthogonalEdgeStyle;exitX=0.45;exitY=1.009;exitDx=0;exitDy=0;exitPerimeter=0;" parent="1" target="Evl8wHQFUjOQ4-fQIDi5-11" edge="1" source="Evl8wHQFUjOQ4-fQIDi5-5">
          <mxGeometry width="50" height="50" relative="1" as="geometry">
            <mxPoint x="400" y="350" as="sourcePoint" />
            <mxPoint x="570" y="240" as="targetPoint" />
            <Array as="points">
              <mxPoint x="400" y="371" />
              <mxPoint x="400" y="386" />
            </Array>
          </mxGeometry>
        </mxCell>
        <mxCell id="G3LRYcrmBQe5PYxQIAtf-3" style="edgeStyle=orthogonalEdgeStyle;rounded=0;orthogonalLoop=1;jettySize=auto;html=1;entryX=1;entryY=0.5;entryDx=0;entryDy=0;" parent="1" source="Evl8wHQFUjOQ4-fQIDi5-5" target="Evl8wHQFUjOQ4-fQIDi5-8" edge="1">
          <mxGeometry relative="1" as="geometry" />
        </mxCell>
      </root>
    </mxGraphModel>
  </diagram>
</mxfile>
